<?xml version="1.0" encoding="utf-8"?>
<!-- Generator: Adobe Illustrator 16.0.3, SVG Export Plug-In . SVG Version: 6.00 Build 0)  -->
<!DOCTYPE svg PUBLIC "-//W3C//DTD SVG 1.1//EN" "http://www.w3.org/Graphics/SVG/1.1/DTD/svg11.dtd">
<svg version="1.1" id="Layer_1" xmlns="http://www.w3.org/2000/svg" xmlns:xlink="http://www.w3.org/1999/xlink" x="0px" y="0px"
	 width="32px" height="32px" viewBox="0 0 32 32" enable-background="new 0 0 32 32" xml:space="preserve">
<g>
	<g>
		<circle fill="#1B1A1B" cx="8.955" cy="25.307" r="4.984"/>
		<path fill="#1B1A1B" d="M6.505,14.455c-0.173-1.793-1.766-3.105-3.56-2.934c-1.792,0.173-3.104,1.766-2.931,3.561
			c0.174,1.793,1.767,3.107,3.559,2.934C5.366,17.839,6.679,16.247,6.505,14.455z"/>
		<path fill="#1B1A1B" d="M16.038,0.603C4.551,2.023,4.365,14.116,14.491,16.985c8.759,2.493,1.809,8.047,2.012,11.75
			c0.201,3.696,7.613,5.038,13.46-4.68C35.706,14.511,28.752-0.969,16.038,0.603z"/>
	</g>
	<g>
		<circle fill="#424242" cx="8.955" cy="25.307" r="4.984"/>
		<path fill="#424242" d="M6.505,14.455c-0.173-1.793-1.766-3.105-3.56-2.934c-1.792,0.173-3.104,1.766-2.931,3.561
			c0.174,1.793,1.767,3.107,3.559,2.934C5.366,17.839,6.679,16.247,6.505,14.455z"/>
		<path fill="#424242" d="M16.038,0.603C4.551,2.023,4.365,14.116,14.491,16.985c8.759,2.493,1.809,8.047,2.012,11.75
			c0.201,3.696,7.613,5.038,13.46-4.68C35.706,14.511,28.752-0.969,16.038,0.603z"/>
	</g>
</g>
</svg>
